<svg width="128" height="128" viewBox="0 0 128 128" fill="none" xmlns="http://www.w3.org/2000/svg">
<g clip-path="url(#clip0_94_5)">
<path d="M66.8597 97.0004C66.4144 97.0012 65.9815 96.8534 65.6297 96.5804C65.422 96.419 65.2481 96.2183 65.118 95.9897C64.988 95.761 64.9043 95.509 64.8718 95.248C64.8393 94.987 64.8586 94.7221 64.9286 94.4685C64.9986 94.215 65.1179 93.9777 65.2797 93.7704L88.4397 64.0004L65.2797 34.2304C64.9535 33.8113 64.8071 33.2799 64.8727 32.7529C64.9384 32.2259 65.2107 31.7466 65.6297 31.4204C66.0487 31.0942 66.5802 30.9478 67.1072 31.0134C67.6342 31.079 68.1135 31.3513 68.4397 31.7704L92.5497 62.7704C92.8238 63.1218 92.9727 63.5547 92.9727 64.0004C92.9727 64.446 92.8238 64.879 92.5497 65.2304L68.4397 96.2304C68.2524 96.4706 68.0127 96.6648 67.7388 96.7982C67.465 96.9317 67.1643 97.0008 66.8597 97.0004Z" fill="white"/>
<path d="M41 97.0004C40.6251 97.0009 40.2576 96.8961 39.9395 96.6979C39.6213 96.4996 39.3652 96.2159 39.2005 95.8792C39.0358 95.5424 38.969 95.1662 39.0078 94.7933C39.0466 94.4204 39.1895 94.066 39.42 93.7704L62.6 64.0004L39.45 34.2304C39.2885 34.0229 39.1694 33.7856 39.0996 33.5321C39.0298 33.2786 39.0105 33.0138 39.043 32.7529C39.0755 32.492 39.1591 32.24 39.289 32.0113C39.4189 31.7827 39.5925 31.5819 39.8 31.4204C40.0075 31.2588 40.2448 31.1398 40.4983 31.0699C40.7518 31.0001 41.0166 30.9809 41.2775 31.0134C41.5384 31.0459 41.7904 31.1295 42.019 31.2594C42.2477 31.3892 42.4485 31.5629 42.61 31.7704L66.72 62.7704C66.9941 63.1218 67.143 63.5547 67.143 64.0004C67.143 64.446 66.9941 64.8789 66.72 65.2304L42.61 96.2304C42.4196 96.4746 42.1751 96.6713 41.8957 96.8049C41.6163 96.9385 41.3097 97.0054 41 97.0004Z" fill="white"/>
<path d="M64 128C51.342 128 38.9683 124.246 28.4435 117.214C17.9188 110.182 9.71575 100.186 4.87174 88.4918C0.02773 76.7973 -1.23968 63.929 1.22977 51.5143C3.69922 39.0995 9.79463 27.6958 18.7452 18.7452C27.6958 9.79463 39.0995 3.69922 51.5143 1.22977C63.929 -1.23968 76.7973 0.02773 88.4918 4.87174C100.186 9.71575 110.182 17.9188 117.214 28.4435C124.246 38.9683 128 51.342 128 64C127.982 80.9682 121.233 97.2361 109.234 109.234C97.2361 121.233 80.9682 127.982 64 128ZM64 4.00003C52.1332 4.00003 40.5328 7.51897 30.6658 14.1119C20.7989 20.7047 13.1085 30.0755 8.56726 41.039C4.026 52.0026 2.8378 64.0666 5.15291 75.7055C7.46802 87.3443 13.1825 98.0353 21.5736 106.426C29.9648 114.818 40.6558 120.532 52.2946 122.847C63.9335 125.162 75.9975 123.974 86.961 119.433C97.9246 114.892 107.295 107.201 113.888 97.3342C120.481 87.4673 124 75.8669 124 64C123.982 48.0927 117.654 32.8423 106.406 21.5941C95.1578 10.3459 79.9073 4.01855 64 4.00003Z" fill="white"/>
</g>
<defs>
<clipPath id="clip0_94_5">
<rect width="128" height="128" fill="white"/>
</clipPath>
</defs>
</svg>
