<svg width="34" height="32" viewBox="0 0 34 32" fill="none" xmlns="http://www.w3.org/2000/svg">
<path d="M14.2802 1.91992C7.90256 1.91992 2.72021 6.79742 2.72021 12.7999C2.72021 18.8024 7.90256 23.6799 14.2802 23.6799C16.8037 23.6799 19.1358 22.9149 21.0377 21.6199L29.984 30.0199L31.8965 28.2199L23.0565 19.8799C24.7937 17.9749 25.8402 15.5024 25.8402 12.7999C25.8402 6.79742 20.6579 1.91992 14.2802 1.91992ZM14.2802 3.19992C19.9221 3.19992 24.4802 7.48992 24.4802 12.7999C24.4802 18.1099 19.9221 22.3999 14.2802 22.3999C8.63834 22.3999 4.08021 18.1099 4.08021 12.7999C4.08021 7.48992 8.63834 3.19992 14.2802 3.19992Z" fill="white"/>
</svg>
