<svg width="67" height="54" viewBox="0 0 67 54" fill="none" xmlns="http://www.w3.org/2000/svg">
<g clip-path="url(#clip0_46_54)">
<path d="M59.4402 27.0239C59.4402 41.8331 46.937 54.0215 31.7435 54.0215C16.5505 54.0215 4.04688 41.8325 4.04688 27.0239C4.04688 12.2138 16.2581 0.0263672 31.7435 0.0263672C46.6432 0.0263672 59.4402 12.2145 59.4402 27.0239Z" fill="#0F3A97"/>
<path d="M37.301 41.2089C49.1339 45.9587 47.0808 33.9563 40.7732 24.7659C37.1981 19.5593 32.5358 15.2214 29.5952 13.128C19.8447 6.18431 13.8255 10.3957 20.7107 24.0898C22.9369 28.5173 25.796 31.5056 28.0292 34.3223C29.7347 36.4727 33.0565 37.5494 31.8864 38.5692C30.5675 39.7199 27.3746 34.6449 27.3746 34.6449C25.0165 31.87 22.7687 28.909 20.4521 24.8452C15.1596 15.564 15.9228 6.09103 25.5031 10.2174C33.6334 13.7212 41.3991 23.548 44.5218 30.5266C45.9637 33.7493 49.8956 46.4987 37.3726 41.3439" fill="white"/>
<path d="M0.504883 35.0032C5.71046 31.6205 10.6459 29.4364 19.0449 26.7293C30.8472 22.9249 39.7298 20.3677 50.6292 15.0223C55.5078 12.6301 63.9728 7.26517 66.9997 2.60156C66.0935 4.40659 63.2858 7.91994 62.0156 9.47356C47.2277 27.5406 15.7284 26.5162 0.712749 35.1897" fill="#F7410A"/>
<path d="M8.05653 21.798C12.8208 21.8344 12.3534 21.7886 12.409 21.8431C12.4922 21.8431 16.2131 28.0954 16.2131 28.1497C16.2131 28.1761 16.1854 25.9276 16.1854 23.1153C16.1854 22.7906 15.2696 21.8433 15.2968 21.8433C16.6568 21.8433 18.4341 21.8704 18.4341 21.8704C17.7682 22.6283 17.635 22.5657 17.6294 23.0344C17.6106 24.5401 17.5932 27.3238 17.6294 30.4498C17.6346 30.9185 17.9904 31.0995 18.5736 31.9115H14.2138C12.7977 29.611 10.2028 25.2953 10.2157 25.3079C10.2357 25.3276 10.1598 28.015 10.243 30.1796C10.2709 30.8949 10.6042 31.1268 11.2154 31.7767C11.2154 31.7767 11.9184 31.7584 7.7998 31.8036C9.04935 31.1538 8.88329 30.3421 8.88282 30.315C8.83796 27.3238 8.87343 24.7663 8.87343 23.1153C8.87343 22.8446 8.85464 22.8715 7.99428 21.8431M22.9529 26.4176C23.3529 25.0624 23.6946 23.8514 23.8569 23.0614C23.8844 22.926 23.5516 22.439 23.024 21.9517L22.9867 21.8761C25.5306 21.8841 28.1883 21.8981 28.1883 21.8981C28.8826 23.5487 30.4649 28.1768 31.6591 31.0191C31.9747 31.7696 32.5199 31.912 32.5199 31.912C30.3541 31.8851 26.3349 31.9035 26.3562 31.8851C27.4388 30.9373 27.3 30.9373 26.8279 29.558H23.4407C22.7464 31.1275 23.657 31.8641 23.7735 31.8583C23.0027 31.8973 20.3864 31.8583 20.3864 31.8583C21.8024 30.8834 21.7188 30.5859 21.7188 30.5859C22.1078 29.2356 22.5585 27.7562 22.9531 26.4173L24.3429 26.4176L23.7458 28.2849H26.4399L24.9402 24.5497L24.3431 26.4171L22.9533 26.4169M46.2221 26.5528C46.6214 25.1981 46.9634 23.9866 47.1257 23.1967C47.1529 23.0614 46.8196 22.5744 46.2923 22.0867L46.255 22.0116C48.7996 22.0196 51.4577 22.0333 51.4577 22.0333C52.1509 23.6844 53.7337 28.312 54.9273 31.1543C55.2428 31.9058 55.7875 32.0472 55.7875 32.0472C53.6231 32.0204 49.6036 32.0387 49.6245 32.0204C50.7073 31.0732 50.569 31.0732 50.0969 29.6933H46.709C46.0147 31.2629 46.9249 31.9993 47.0414 31.994C46.2712 32.0325 43.6542 31.994 43.6542 31.994C45.0703 31.0195 44.9874 30.7216 44.9874 30.7216C45.3763 29.3708 45.8268 27.8921 46.2221 26.5528H47.6116C47.3124 27.4872 47.0151 28.4208 47.0151 28.4208H49.7077L48.208 24.6852C48.208 24.6852 47.9104 25.6186 47.6116 26.5523L46.2221 26.5528ZM41.8419 24.3343C41.7867 22.4115 41.8419 21.7895 41.8419 21.7895C40.9808 22.4665 41.4156 22.3801 39.2601 22.0331C33.049 21.0332 32.5758 26.691 35.9559 27.96C38.7932 29.0257 39.7982 29.2347 39.3708 30.2332C39.2319 30.5591 36.6499 31.7495 33.9846 29.3403L34.0388 32.6967C34.3723 32.3618 35.2891 31.7495 35.2891 31.7495C35.3161 31.7495 38.1781 32.9795 40.7584 31.6954C44.7295 29.7201 42.7476 26.5223 38.5097 25.254C34.983 24.1984 38.3152 21.7352 41.8132 24.3609M31.4437 2.45393C31.4435 2.51227 31.4197 2.56817 31.3775 2.60947C31.3352 2.65076 31.278 2.6741 31.2182 2.6744C31.1584 2.67404 31.1012 2.65068 31.059 2.6094C31.0168 2.56812 30.993 2.51225 30.9927 2.45393C30.9927 2.3343 31.0949 2.23438 31.2182 2.23438C31.2778 2.23456 31.335 2.25773 31.3773 2.29885C31.4195 2.33998 31.4434 2.39571 31.4437 2.45393ZM33.0079 5.78668C33.0079 5.93519 32.8816 6.0578 32.7303 6.0578C32.6567 6.0575 32.5862 6.02885 32.5341 5.97808C32.482 5.9273 32.4526 5.85852 32.4522 5.78668C32.4522 5.63863 32.5777 5.51648 32.7303 5.51648C32.8818 5.51648 33.0079 5.6384 33.0079 5.78668ZM37.0661 11.2334C37.0661 11.3815 36.9417 11.5041 36.7883 11.5041C36.7148 11.5036 36.6446 11.4749 36.5926 11.4243C36.5406 11.3736 36.5112 11.3051 36.5107 11.2334C36.5107 11.0849 36.6269 10.9621 36.7798 10.9621C36.933 10.9625 37.0661 11.0849 37.0661 11.2334ZM30.5417 7.66436C30.5415 7.72262 30.5176 7.77842 30.4754 7.81959C30.4332 7.86076 30.376 7.88397 30.3163 7.88415C30.2565 7.88397 30.1993 7.86078 30.1569 7.81962C30.1146 7.77846 30.0907 7.72266 30.0903 7.66436C30.0903 7.54404 30.1925 7.44435 30.3163 7.44435C30.376 7.44453 30.4332 7.46777 30.4755 7.50899C30.5177 7.55021 30.5416 7.60607 30.5417 7.66436ZM32.9727 8.91638C32.9723 8.97452 32.9484 9.03016 32.9062 9.07125C32.8641 9.11234 32.8071 9.13558 32.7475 9.13594C32.6878 9.13564 32.6307 9.11243 32.5885 9.07134C32.5462 9.03025 32.5222 8.97458 32.5218 8.91638C32.5218 8.79606 32.6239 8.6966 32.7475 8.6966C32.8708 8.6966 32.9727 8.79606 32.9727 8.91638ZM29.8136 5.41426C29.8136 5.56277 29.6882 5.68538 29.536 5.68538C29.3838 5.68538 29.2584 5.56346 29.2584 5.41426C29.2584 5.26621 29.3838 5.14337 29.536 5.14337C29.6882 5.14337 29.8136 5.26575 29.8136 5.41426ZM26.1355 7.59676C26.1355 7.71754 26.0338 7.81677 25.9097 7.81677C25.85 7.81647 25.7929 7.79319 25.7506 7.752C25.7084 7.7108 25.6846 7.65502 25.6843 7.59676C25.6843 7.47644 25.7862 7.37674 25.9097 7.37674C25.9695 7.37692 26.0268 7.40015 26.0691 7.44137C26.1113 7.48258 26.1352 7.53844 26.1355 7.59676ZM26.7931 8.0361C26.7929 8.0945 26.769 8.15043 26.7267 8.19173C26.6843 8.23302 26.627 8.25633 26.5672 8.25657C26.5073 8.25627 26.45 8.23294 26.4077 8.19166C26.3654 8.15038 26.3415 8.09448 26.3412 8.0361C26.3439 7.97936 26.3688 7.92581 26.4109 7.88658C26.453 7.84734 26.509 7.82545 26.5672 7.82545C26.6254 7.82545 26.6813 7.84734 26.7234 7.88658C26.7655 7.92581 26.7905 7.97936 26.7931 8.0361ZM27.4531 8.47612C27.4529 8.53446 27.4291 8.59037 27.3869 8.63166C27.3447 8.67296 27.2874 8.6963 27.2276 8.6966C27.1678 8.6963 27.1106 8.67296 27.0683 8.63167C27.026 8.59039 27.0022 8.53448 27.0019 8.47612C27.0019 8.35626 27.1041 8.2568 27.2276 8.2568C27.3514 8.2568 27.4531 8.35603 27.4531 8.47612ZM26.4478 9.32226C26.4472 9.38051 26.4232 9.43619 26.381 9.47733C26.3387 9.51848 26.2816 9.5418 26.2219 9.54228C26.1621 9.54198 26.1049 9.51871 26.0626 9.47753C26.0203 9.43635 25.9964 9.38056 25.9959 9.32226C25.9959 9.20194 26.0979 9.10248 26.2219 9.10248C26.3452 9.10248 26.4478 9.20194 26.4478 9.32226ZM21.2063 12.9083C21.206 12.9665 21.182 13.0223 21.1397 13.0634C21.0974 13.1046 21.0401 13.1277 20.9804 13.1278C20.8566 13.1278 20.7547 13.0288 20.7547 12.9083C20.7547 12.7877 20.8568 12.688 20.9804 12.688C21.1039 12.688 21.2063 12.7875 21.2063 12.9083ZM22.1778 14.059C22.1773 14.1172 22.1533 14.1729 22.1111 14.214C22.0689 14.2551 22.0117 14.2784 21.9521 14.2788C21.8924 14.2784 21.8352 14.2552 21.7929 14.214C21.7507 14.1729 21.7267 14.1172 21.7261 14.059C21.7261 13.938 21.8283 13.839 21.9521 13.839C22.0758 13.839 22.1778 13.938 22.1778 14.059ZM21.4055 32.633C21.4051 32.6912 21.3812 32.747 21.339 32.7881C21.2967 32.8293 21.2395 32.8525 21.1798 32.8527C21.056 32.8527 20.9543 32.7533 20.9543 32.633C20.9543 32.5126 21.056 32.4127 21.1798 32.4127C21.3038 32.4127 21.4055 32.5126 21.4055 32.633ZM21.5443 37.7572C21.5443 37.9057 21.4189 38.0281 21.2667 38.0281C21.1145 38.0281 20.9891 37.9064 20.9891 37.7572C20.9891 37.6092 21.1145 37.4868 21.2667 37.4868C21.3401 37.4872 21.4105 37.5157 21.4624 37.5664C21.5144 37.617 21.5438 37.6856 21.5443 37.7572ZM18.5588 40.3818C18.5584 40.44 18.5345 40.4956 18.4923 40.5367C18.4502 40.5778 18.3931 40.601 18.3336 40.6014C18.2739 40.6011 18.2168 40.5779 18.1745 40.5368C18.1323 40.4957 18.1083 40.44 18.1078 40.3818C18.1078 40.2606 18.21 40.1616 18.3336 40.1616C18.4569 40.1616 18.5588 40.2603 18.5588 40.3818ZM14.9844 41.4448C14.984 41.5165 14.9545 41.5852 14.9024 41.6359C14.8504 41.6866 14.7799 41.7153 14.7064 41.7156C14.6328 41.7154 14.5623 41.6868 14.5103 41.636C14.4583 41.5853 14.429 41.5165 14.4287 41.4448C14.4287 41.2965 14.5542 41.1739 14.7064 41.1739C14.7799 41.1743 14.8503 41.2029 14.9024 41.2536C14.9544 41.3043 14.9839 41.373 14.9844 41.4448ZM14.2554 39.0775C14.2554 39.2254 14.13 39.3477 13.9782 39.3477C13.9048 39.3474 13.8345 39.3188 13.7826 39.2682C13.7306 39.2177 13.7012 39.1492 13.7006 39.0775C13.7009 39.0057 13.7302 38.9369 13.7822 38.8861C13.8342 38.8352 13.9046 38.8064 13.9782 38.806C14.13 38.8066 14.2554 38.9288 14.2554 39.0775ZM13.8394 40.5833C13.8394 40.704 13.7373 40.803 13.6137 40.803C13.4902 40.803 13.3878 40.704 13.3878 40.5833C13.3878 40.4634 13.4902 40.3632 13.6137 40.3632C13.7373 40.3632 13.8394 40.4627 13.8394 40.5833ZM11.1663 39.3322C11.1659 39.3903 11.1421 39.446 11.1 39.4871C11.0579 39.5282 11.0009 39.5515 10.9413 39.5519C10.8816 39.5517 10.8243 39.5285 10.782 39.4873C10.7397 39.4462 10.7158 39.3904 10.7153 39.3322C10.7153 39.2123 10.8173 39.1124 10.9413 39.1124C11.0644 39.1124 11.1663 39.2116 11.1663 39.3322ZM20.5026 43.5603C20.5026 43.6811 20.4094 43.7806 20.2861 43.7806C20.1623 43.7806 20.0514 43.6811 20.0514 43.5603C20.0514 43.44 20.1536 43.3403 20.2769 43.3403C20.4012 43.3403 20.5026 43.4398 20.5026 43.5603ZM23.3146 41.5481C23.3146 41.6966 23.1981 41.8195 23.0454 41.8195C22.8932 41.8195 22.7593 41.6973 22.7593 41.5481C22.7593 41.4001 22.8848 41.2777 23.037 41.2777C23.1104 41.278 23.1807 41.3066 23.2327 41.3573C23.2847 41.4079 23.3141 41.4765 23.3146 41.5481ZM23.6364 44.1356C23.6364 44.2563 23.5253 44.3563 23.4022 44.3563C23.3423 44.3559 23.285 44.3325 23.2427 44.2912C23.2004 44.2499 23.1766 44.194 23.1762 44.1356C23.1762 44.0157 23.2782 43.9162 23.4022 43.9162C23.5253 43.916 23.6364 44.015 23.6364 44.1356ZM35.1923 41.665C35.1919 41.7232 35.168 41.7788 35.126 41.82C35.0839 41.8612 35.0269 41.8846 34.9673 41.8852C34.9075 41.8849 34.8502 41.8616 34.8078 41.8204C34.7655 41.7792 34.7414 41.7234 34.7409 41.665C34.7409 41.5442 34.8428 41.4452 34.9673 41.4452C35.0904 41.4452 35.1923 41.5442 35.1923 41.665ZM29.8136 43.5257C29.8134 43.584 29.7895 43.6398 29.7473 43.6809C29.7051 43.7221 29.6478 43.7453 29.5881 43.7455C29.5285 43.7452 29.4713 43.722 29.4291 43.6808C29.3869 43.6397 29.363 43.5839 29.3627 43.5257C29.3627 43.4059 29.4648 43.3059 29.5881 43.3059C29.7122 43.3059 29.8136 43.4054 29.8136 43.5257ZM44.287 46.2003C44.2865 46.2585 44.2625 46.3142 44.2203 46.3553C44.178 46.3964 44.1209 46.4197 44.0612 46.42C44.0015 46.4198 43.9442 46.3966 43.9019 46.3555C43.8596 46.3143 43.8355 46.2586 43.8351 46.2003C43.8351 46.0802 43.9375 45.9805 44.0612 45.9805C44.1846 45.9805 44.287 46.0797 44.287 46.2003ZM45.4658 35.7957C45.4654 35.8675 45.4359 35.9362 45.3839 35.987C45.3318 36.0378 45.2613 36.0664 45.1877 36.0668C45.1142 36.0664 45.0437 36.0377 44.9917 35.9869C44.9397 35.9362 44.9103 35.8674 44.9098 35.7957C44.9098 35.6472 45.035 35.5245 45.1877 35.5245C45.2613 35.5248 45.3319 35.5535 45.3839 35.6043C45.436 35.655 45.4654 35.7238 45.4658 35.7957ZM43.2462 37.267C43.2458 37.3254 43.2218 37.3812 43.1795 37.4224C43.1371 37.4637 43.0798 37.487 43.02 37.4873C42.897 37.4873 42.7948 37.3876 42.7948 37.267C42.7948 37.1465 42.897 37.0475 43.02 37.0475C43.144 37.0475 43.2462 37.1462 43.2462 37.267ZM45.4334 37.691C45.4334 37.8393 45.3082 37.9623 45.1553 37.9623C45.0024 37.9623 44.8772 37.84 44.8772 37.691C44.8772 37.5429 45.0024 37.4201 45.1553 37.4201C45.3082 37.4201 45.4334 37.5429 45.4334 37.691ZM43.2462 40.3128C43.2458 40.3711 43.2218 40.4269 43.1794 40.4681C43.1371 40.5092 43.0798 40.5324 43.02 40.5326C42.9604 40.5322 42.9034 40.5089 42.8612 40.4678C42.8191 40.4266 42.7952 40.371 42.7948 40.3128C42.7948 40.192 42.897 40.0926 43.02 40.0926C43.144 40.0926 43.2462 40.1918 43.2462 40.3128ZM48.9021 34.3243C48.9021 34.4444 48.7994 34.5443 48.6763 34.5443C48.6167 34.5439 48.5597 34.5205 48.5175 34.4794C48.4754 34.4382 48.4515 34.3825 48.4511 34.3243C48.4511 34.2038 48.553 34.1048 48.6763 34.1048C48.7996 34.1048 48.9021 34.2038 48.9021 34.3243ZM49.4493 35.6604C49.4493 35.8087 49.3335 35.9316 49.1806 35.9316C49.0282 35.9316 48.8941 35.8094 48.8941 35.6604C48.8941 35.5119 49.0193 35.3898 49.1715 35.3898C49.3241 35.3902 49.4493 35.5119 49.4493 35.6604ZM53.3459 37.251C53.3459 37.3992 53.2219 37.5219 53.0681 37.5219C52.9945 37.5216 52.9239 37.493 52.8719 37.4423C52.8198 37.3915 52.7903 37.3228 52.79 37.251C52.7904 37.1791 52.8198 37.1104 52.8719 37.0596C52.924 37.0089 52.9945 36.9802 53.0681 36.9798C53.1417 36.9801 53.2122 37.0087 53.2643 37.0595C53.3163 37.1103 53.3457 37.1791 53.3459 37.251ZM49.388 40.077C49.3875 40.1353 49.3634 40.191 49.3211 40.2321C49.2788 40.2733 49.2216 40.2965 49.1618 40.2968C49.1021 40.2965 49.045 40.2732 49.0027 40.2321C48.9605 40.191 48.9365 40.1352 48.9361 40.077C48.9361 39.9562 49.0385 39.8568 49.1618 39.8568C49.2851 39.8568 49.388 39.9555 49.388 40.077ZM51.8873 37.7758C51.887 37.834 51.8632 37.8897 51.821 37.9309C51.7788 37.972 51.7217 37.9953 51.6621 37.9956C51.6024 37.9952 51.5453 37.972 51.5031 37.9308C51.4609 37.8897 51.437 37.834 51.4366 37.7758C51.4366 37.6557 51.5392 37.5558 51.6621 37.5558C51.7854 37.5558 51.8873 37.655 51.8873 37.7758ZM51.427 41.3281C51.4267 41.3863 51.4028 41.442 51.3607 41.4832C51.3185 41.5243 51.2614 41.5476 51.2017 41.5479C51.1419 41.5478 51.0846 41.5246 51.0423 41.4834C50.9999 41.4423 50.9759 41.3864 50.9755 41.3281C50.9755 41.2082 51.0775 41.1081 51.2017 41.1081C51.325 41.1081 51.427 41.2076 51.427 41.3281ZM52.4863 35.4244C52.4863 35.6103 52.3294 35.7627 52.1389 35.7627C51.9486 35.7627 51.792 35.6103 51.792 35.4244C51.792 35.2388 51.9486 35.0864 52.1389 35.0864C52.3294 35.0864 52.4863 35.2388 52.4863 35.4244Z" fill="white"/>
<path d="M52.1387 34.3936L52.0356 35.3238L51.0898 35.4256L52.0439 35.5264L52.1481 36.491L52.2524 35.5264L53.1891 35.4077L52.244 35.3231L52.1387 34.3936ZM50.0559 41.31C50.0559 41.4961 49.8992 41.649 49.7087 41.649C49.6167 41.6486 49.5286 41.6128 49.4635 41.5493C49.3984 41.4858 49.3617 41.3998 49.3613 41.31C49.3613 41.1244 49.5182 40.972 49.7087 40.972C49.8005 40.9723 49.8885 41.008 49.9535 41.0713C50.0185 41.1346 50.0553 41.2204 50.0559 41.31Z" fill="white"/>
<path d="M49.7104 40.2785L49.6061 41.2092L48.6608 41.3103L49.6148 41.4121L49.7194 42.3758L49.8236 41.4121L50.7599 41.2933L49.814 41.2085L49.7104 40.2785ZM24.165 13.3649C24.165 13.5505 24.0083 13.7031 23.8181 13.7031C23.7262 13.7029 23.638 13.6672 23.573 13.6038C23.5079 13.5405 23.4711 13.4546 23.4707 13.3649C23.4707 13.1788 23.6271 13.0264 23.8181 13.0264C24.0083 13.0268 24.165 13.1792 24.165 13.3649Z" fill="white"/>
<path d="M23.8179 12.3329L23.7137 13.2631L22.7676 13.3649L23.7221 13.4655L23.8264 14.4306L23.9302 13.4655L24.8674 13.3477L23.9213 13.2627L23.8179 12.3329ZM37.0765 5.17783C37.0765 5.36346 36.9196 5.51633 36.7291 5.51633C36.5386 5.51633 36.3824 5.36346 36.3824 5.17783C36.3824 4.99173 36.5384 4.83887 36.7291 4.83887C36.9198 4.83887 37.0765 4.99219 37.0765 5.17783Z" fill="white"/>
<path d="M36.729 4.14551L36.6257 5.07644L35.6801 5.1782L36.6344 5.27927L36.7377 6.24366L36.842 5.27927L37.7787 5.16055L36.8329 5.07598L36.729 4.14551ZM21.3798 46.7258C21.3798 46.9118 21.2232 47.0643 21.0329 47.0643C20.941 47.064 20.8529 47.0282 20.7878 46.9648C20.7227 46.9014 20.686 46.8155 20.6855 46.7258C20.6855 46.5403 20.8422 46.387 21.0329 46.387C21.2232 46.3873 21.3798 46.5406 21.3798 46.7258Z" fill="white"/>
<path d="M21.0409 45.6924L20.9371 46.6233L19.9912 46.7246L20.9455 46.8257L21.0496 47.7901L21.1534 46.8257L22.0905 46.7074L21.1449 46.6226L21.0409 45.6924Z" fill="white"/>
<path d="M66.9973 2.60156C62.7763 14.8197 45.8678 24.2544 31.6342 33.2607C23.0474 38.6962 14.5221 44.9522 8.65296 50.2751C7.10606 51.6789 8.96816 49.7501 8.37533 50.343C16.566 41.1411 25.9878 35.66 31.1943 32.2097C39.9996 26.3727 45.0079 24.9016 60.1992 11.2481" fill="#F7410A"/>
<path d="M4.02579 32.8721C2.50989 33.5951 1.15207 34.31 0 35.0078L0.700872 35.2567C1.70849 34.6514 2.91811 34.02 4.19232 33.4638M12.0285 46.5448C10.5863 47.7719 9.16794 49.0254 7.77418 50.3047L7.71077 51.2377C9.02608 49.9151 10.6418 48.488 12.5065 46.9731" fill="#EE293D"/>
<path d="M37.3019 41.2095C49.1348 45.9593 47.0817 33.9569 40.7741 24.7665C37.1988 19.5599 32.7902 15.4296 29.5959 13.1287C25.866 10.4415 25.502 10.2188 25.502 10.2188C33.8312 14.0761 41.3979 23.5491 44.5202 30.5281C45.9625 33.7506 49.8941 46.5 37.371 41.3452" fill="white"/>
</g>
<defs>
<clipPath id="clip0_46_54">
<rect width="67" height="54" fill="white"/>
</clipPath>
</defs>
</svg>
